<?xml version="1.0" encoding="utf-8"?><svg viewBox="0 0 512 512" xmlns="http://www.w3.org/2000/svg" xmlns:xlink="http://www.w3.org/1999/xlink"><style>:root>svg{display:none}:root>svg:target{display:block}</style><svg viewBox="0 0 28 28" id="Inst" xmlns="http://www.w3.org/2000/svg"><g clip-path="url(#aa)"><path d="M16.68 14a2.68 2.68 0 11-5.36 0 2.68 2.68 0 015.36 0z"/><path d="M20.267 9.259a2.49 2.49 0 00-.602-.925 2.49 2.49 0 00-.924-.601c-.283-.11-.709-.241-1.493-.277-.847-.038-1.102-.047-3.248-.047-2.147 0-2.401.008-3.249.047-.783.036-1.21.167-1.492.277-.35.129-.665.334-.925.601-.267.26-.472.575-.601.925-.11.283-.241.709-.277 1.492-.038.848-.047 1.102-.047 3.249 0 2.146.009 2.4.047 3.248.036.784.167 1.21.277 1.493.129.35.334.665.601.924.26.267.575.473.925.602.283.11.709.24 1.492.277.848.038 1.102.046 3.249.046 2.147 0 2.4-.008 3.248-.046.784-.036 1.21-.167 1.493-.277a2.662 2.662 0 001.526-1.526c.11-.283.24-.709.277-1.493.038-.847.046-1.102.046-3.248 0-2.147-.008-2.401-.046-3.249-.036-.783-.167-1.21-.277-1.492zM14 18.128a4.128 4.128 0 110-8.256 4.128 4.128 0 010 8.256zm4.291-7.455a.965.965 0 110-1.93.965.965 0 010 1.93z"/><path d="M14 0C6.27 0 0 6.27 0 14s6.27 14 14 14 14-6.27 14-14S21.73 0 14 0zm7.99 17.314c-.038.856-.174 1.44-.373 1.952a4.11 4.11 0 01-2.351 2.35c-.511.2-1.096.335-1.951.375-.858.039-1.132.048-3.315.048s-2.457-.01-3.314-.048c-.856-.04-1.44-.175-1.952-.374a3.937 3.937 0 01-1.424-.927 3.94 3.94 0 01-.927-1.424c-.198-.511-.334-1.096-.373-1.951-.04-.858-.05-1.132-.05-3.315s.01-2.457.05-3.314c.038-.856.174-1.44.373-1.952A3.938 3.938 0 017.31 7.31a3.949 3.949 0 011.424-.927c.512-.199 1.096-.334 1.952-.374.857-.039 1.13-.048 3.314-.048 2.183 0 2.457.01 3.314.049.856.039 1.44.174 1.952.373a3.941 3.941 0 011.424.927c.409.402.725.888.927 1.424.199.512.335 1.096.374 1.952.039.857.048 1.13.048 3.314 0 2.183-.01 2.457-.048 3.314z"/></g><defs><clipPath id="aa"><path d="M0 0h28v28H0z"/></clipPath></defs></svg><svg viewBox="0 0 512 512" id="VK" xmlns="http://www.w3.org/2000/svg"><path d="M256 0C114.615 0 0 114.615 0 256s114.615 256 256 256 256-114.615 256-256S397.385 0 256 0zm136.363 342.9h-32.485a23.41 23.41 0 01-18.318-8.8c-9.742-12.231-28.934-33.918-49.085-43.233a7.666 7.666 0 00-10.916 6.928v32.128a12.974 12.974 0 01-12.974 12.977h-15.021c-19.534 0-61.6-11.891-95.119-60.719-28.56-41.6-41.291-73.84-48.715-99.98a10.3 10.3 0 019.922-13.093h32.862a15.226 15.226 0 0114.6 10.861c6.111 20.439 21.939 64.53 49.917 86.486a5.788 5.788 0 009.371-4.54v-51.466c0-10.171-4.408-20.347-11.288-28.3a7.878 7.878 0 015.946-13.046h50.666a9.838 9.838 0 019.838 9.837v69.325a5.468 5.468 0 008.636 4.456c9.3-6.62 17.265-16.4 24.591-27.393 9.22-13.828 20.471-36.686 26.115-48.549a13.457 13.457 0 0112.154-7.679h35.84a8.788 8.788 0 017.873 12.7c-9.044 18.14-26.659 51.418-43.235 70.942a13.877 13.877 0 001.623 19.54c10.805 9.232 27.673 26.3 45.859 54.729a10.305 10.305 0 01-8.657 15.889z"/></svg><svg stroke-width="1.5" color="#000" viewBox="0 0 24 24" id="arrow" xmlns="http://www.w3.org/2000/svg"><path d="M9 6l6 6-6 6"/></svg><svg viewBox="0 0 20 13" id="burger" xmlns="http://www.w3.org/2000/svg"><rect width="20" height="1.429" rx=".714" transform="matrix(1 0 0 -1 0 13)"/><rect width="20" height="1.429" rx=".714" transform="matrix(1 0 0 -1 0 7.571)"/><rect width="11.429" height="1.429" rx=".714" transform="matrix(1 0 0 -1 0 2.143)"/></svg><svg viewBox="0 0 19 17" id="checked" xmlns="http://www.w3.org/2000/svg"><path d="M14.447 17H2.177C.977 17 0 16.002 0 14.774V2.226C0 .998.976 0 2.177 0h9.895a.6.6 0 01.594.607.6.6 0 01-.594.607H2.178c-.545 0-.99.454-.99 1.012v12.548c0 .558.445 1.012.99 1.012h12.27c.546 0 .99-.454.99-1.012V7.893a.6.6 0 01.594-.607.6.6 0 01.594.607v6.88c0 1.229-.977 2.227-2.178 2.227z"/><path d="M9.698 10.12a.582.582 0 01-.42-.18L5.716 6.299a.617.617 0 010-.859.585.585 0 01.84 0l3.142 3.214L17.986.178a.585.585 0 01.84 0 .617.617 0 010 .859l-8.708 8.905a.588.588 0 01-.42.177z"/></svg><svg viewBox="0 0 18 18" id="close" xmlns="http://www.w3.org/2000/svg"><path d="M5.068 12.932L9.001 9l3.932 3.932m0-7.865L9 9 5.068 5.067"/></svg><svg viewBox="0 0 54 54" id="delivery" xmlns="http://www.w3.org/2000/svg"><path d="M51.346 0H33.598c-1.463 0-2.654 1.31-2.654 2.92v18.72c0 1.61 1.19 2.92 2.654 2.92h17.748c1.463 0 2.653-1.31 2.653-2.92V2.92C54 1.31 52.81 0 51.346 0zM45.16 2.322v3.935l-.336-.21a.972.972 0 00-1.081.022l-1.18.81-1.092-.794a.982.982 0 00-1.103-.04l-.34.214V2.322h5.132zm6.73 19.318c0 .33-.244.599-.544.599H33.598c-.3 0-.544-.269-.544-.599V2.92c0-.33.244-.598.544-.598h4.32v5.935c0 .873.887 1.443 1.578 1.009l1.354-.85 1.117.81a.983.983 0 001.139.016l1.219-.836 1.367.86c.691.434 1.578-.135 1.578-1.009V2.322h4.076c.3 0 .544.268.544.598v18.72z"/><path d="M40.96 16.924h-3.97c-.583 0-1.055.52-1.055 1.16 0 .642.472 1.161 1.054 1.161h3.972c.582 0 1.054-.52 1.054-1.16 0-.641-.472-1.161-1.054-1.161zM38.565 28.26H8.842c-3.713 0-6.733-3.325-6.733-7.41s3.02-7.41 6.733-7.41h13.554c.583 0 1.055-.52 1.055-1.16 0-.641-.472-1.16-1.055-1.16H8.842C3.966 11.12 0 15.484 0 20.85c0 5.366 3.966 9.73 8.842 9.73h29.723c2.27 0 4.118 2.034 4.118 4.533 0 2.5-1.848 4.532-4.118 4.532h-8.246l1.094-1.204a1.245 1.245 0 000-1.642.988.988 0 00-1.492 0l-2.895 3.186c-.406.448-.406 1.194 0 1.642l2.895 3.186a.997.997 0 001.492 0 1.245 1.245 0 000-1.642l-1.095-1.204h8.247c3.434 0 6.227-3.075 6.227-6.854s-2.794-6.854-6.227-6.854z"/><path d="M16.94 33.412c-4 0-7.254 3.582-7.254 7.984 0 1.644.464 3.328 1.36 4.654l5.047 7.488a1.008 1.008 0 001.694 0l5.047-7.488c.896-1.325 1.36-3.011 1.36-4.654 0-4.402-3.254-7.984-7.254-7.984zm4.188 11.27a1.73 1.73 0 00-.023.037L16.94 50.9l-4.165-6.18c-.606-1.009-.98-2.1-.98-3.323 0-3.122 2.308-5.662 5.145-5.662 2.837 0 5.145 2.54 5.145 5.662a6.018 6.018 0 01-.957 3.287z"/><path d="M16.94 37.762c-1.82 0-3.301 1.63-3.301 3.634s1.48 3.634 3.302 3.634c1.82 0 3.302-1.63 3.302-3.634s-1.482-3.634-3.302-3.634zm0 4.947c-.657 0-1.192-.59-1.192-1.313 0-.724.535-1.313 1.193-1.313.657 0 1.192.589 1.192 1.313s-.535 1.313-1.192 1.313zm9.277-29.985c.218.586.848.87 1.378.628.53-.242.79-.932.57-1.516-.22-.584-.846-.87-1.377-.628-.53.241-.792.933-.57 1.516z"/></svg><svg viewBox="0 0 27 28" id="fb" xmlns="http://www.w3.org/2000/svg"><g clip-path="url(#ha)"><path d="M27 14c0-7.733-6.043-14-13.5-14S0 6.267 0 14s6.043 14 13.5 14c.08 0 .158 0 .237-.006V17.101h-2.9v-3.506h2.9v-2.58c0-2.992 1.762-4.622 4.335-4.622 1.234 0 2.294.093 2.6.137v3.128H18.9c-1.397 0-1.672.689-1.672 1.7v2.232h3.349l-.438 3.505h-2.91V27.46C22.87 25.779 27 20.393 27 14z"/></g><defs><clipPath id="ha"><path d="M0 0h27v28H0z"/></clipPath></defs></svg><svg viewBox="0 0 54 54" id="key" xmlns="http://www.w3.org/2000/svg"><path d="M53.129 22.645h-4.792a21.834 21.834 0 00-3.17-7.652l3.388-3.39a.873.873 0 000-1.232L43.63 5.445a.873.873 0 00-1.232 0l-3.39 3.389a21.836 21.836 0 00-7.652-3.17V.87a.87.87 0 00-.872-.87h-6.968a.87.87 0 00-.87.871v4.792a21.836 21.836 0 00-7.653 3.17l-3.39-3.388a.873.873 0 00-1.232 0L5.445 10.37a.873.873 0 000 1.232l3.389 3.39a21.836 21.836 0 00-3.17 7.652H.87a.87.87 0 00-.871.871v6.968a.87.87 0 00.871.87h4.792a21.836 21.836 0 003.17 7.653l-3.388 3.39a.873.873 0 000 1.232l4.926 4.926a.873.873 0 001.232 0l3.39-3.389a21.834 21.834 0 007.652 3.17v4.793a.87.87 0 00.871.871h6.968a.87.87 0 00.87-.871v-4.792a21.834 21.834 0 007.653-3.17l3.39 3.388a.873.873 0 001.232 0l4.926-4.926a.873.873 0 000-1.232l-3.389-3.39a21.834 21.834 0 003.17-7.652h4.793a.87.87 0 00.871-.871v-6.968a.87.87 0 00-.871-.87zm-.87 6.968h-4.647a.871.871 0 00-.858.727 20.063 20.063 0 01-3.424 8.267.87.87 0 00.093 1.121l3.285 3.285-3.695 3.695-3.285-3.285a.87.87 0 00-1.121-.093 20.063 20.063 0 01-8.267 3.424.872.872 0 00-.727.858v4.646h-5.226v-4.646a.871.871 0 00-.727-.858 20.063 20.063 0 01-8.267-3.424.87.87 0 00-1.121.093l-3.285 3.285-3.695-3.695 3.285-3.285a.87.87 0 00.093-1.121 20.064 20.064 0 01-3.424-8.267.871.871 0 00-.859-.727H1.742v-5.226h4.645a.871.871 0 00.86-.727 20.064 20.064 0 013.423-8.267.87.87 0 00-.093-1.121l-3.285-3.285 3.695-3.695 3.285 3.285a.87.87 0 001.121.093 20.064 20.064 0 018.267-3.424.871.871 0 00.727-.859V1.742h5.226v4.645a.871.871 0 00.727.86 20.064 20.064 0 018.267 3.423.87.87 0 001.121-.093l3.285-3.285 3.695 3.695-3.285 3.285a.87.87 0 00-.093 1.121 20.063 20.063 0 013.424 8.267.872.872 0 00.858.727h4.646v5.226z"/><path d="M27 9.581c-9.604 0-17.419 7.815-17.419 17.42a17.432 17.432 0 0021.086 17.031A17.424 17.424 0 0044.42 27c0-9.604-7.815-17.419-17.42-17.419zm3.097 20.178a.872.872 0 00-.484.78v11.92a15.908 15.908 0 01-4.681.083l-.026-.004a21.397 21.397 0 01-.353-.05l-.072-.013c-.031-.004-.062-.01-.094-.016v-11.92a.873.873 0 00-.483-.78 6.97 6.97 0 01-.387-12.278v6.035a.876.876 0 00.387.726l2.613 1.742a.873.873 0 00.967 0l2.613-1.742a.874.874 0 00.387-.726v-6.035a6.97 6.97 0 01-.387 12.278zm9.046 7.16a15.758 15.758 0 01-7.788 5.145V31.06a8.713 8.713 0 00-1.451-15.758.871.871 0 00-1.162.821v6.927L27 24.21l-1.741-1.16v-6.927a.87.87 0 00-1.162-.82 8.713 8.713 0 00-1.451 15.757v11.003A15.682 15.682 0 0111.323 27c0-8.644 7.033-15.677 15.677-15.677 8.645 0 15.678 7.033 15.678 15.677a15.706 15.706 0 01-3.535 9.919zM6.968 26.129H3.484a.871.871 0 000 1.742h3.484a.87.87 0 100-1.742z"/><path d="M27 36.58a.87.87 0 00.87-.87v-6.097a.87.87 0 10-1.741 0v6.097a.871.871 0 00.87.87zm0 3.484a.87.87 0 00.87-.87v-.872a.87.87 0 10-1.741 0v.871a.871.871 0 00.87.871z"/></svg><svg viewBox="0 0 18 18" id="menu-arrow" xmlns="http://www.w3.org/2000/svg"><path d="M6.75 13.5l4.5-4.5-4.5-4.5"/></svg><svg viewBox="0 0 86 86" id="phon-reguest" xmlns="http://www.w3.org/2000/svg"><path d="M51.7 58.944a4.298 4.298 0 01-.924-.104c-5.781-1.223-11.108-4.091-15.366-8.273-4.166-4.191-7.057-9.528-8.32-15.364a4.425 4.425 0 01.106-2.19 4.345 4.345 0 011.142-1.856l3.698-3.64a1.833 1.833 0 011.424-.51c.268.028.528.117.76.259.23.142.43.334.58.563l4.623 6.987a1.538 1.538 0 01-.102 1.796l-2.32 2.837a17.91 17.91 0 003.855 5.568 17.79 17.79 0 005.612 3.867l2.875-2.335a1.49 1.49 0 011.72-.113l6.98 4.613c.24.146.443.346.596.585a1.916 1.916 0 01.211 1.633 1.9 1.9 0 01-.428.722l-3.606 3.65c-.41.417-.896.746-1.43.97a4.298 4.298 0 01-1.686.335zM33.312 28.878l-3.698 3.64a2.41 2.41 0 00-.64 1.041 2.45 2.45 0 00-.053 1.229 29.215 29.215 0 007.775 14.427 29.284 29.284 0 0014.459 7.781c.412.088.838.07 1.242-.052.403-.122.77-.345 1.07-.648l3.605-3.65-6.74-4.452-3.088 2.515a.914.914 0 01-.85.16 18.507 18.507 0 01-6.805-4.49 18.452 18.452 0 01-4.502-6.807.966.966 0 01.222-.899l2.496-3.053-4.493-6.741z"/><circle cx="43" cy="43" r="42.5"/></svg><svg viewBox="0 0 55 54" id="watch" xmlns="http://www.w3.org/2000/svg"><g clip-path="url(#la)"><path d="M10.28 0h3.426v10.125h-3.427V0zm27.41 0h3.427v10.125H37.69V0z"/><path d="M22.614 47.25H3.426v-27H47.97v2.025c1.371.675 2.399 1.35 3.427 2.363V3.374h-6.853V13.5h-10.28V3.375H17.132V13.5H6.852V3.375H0v47.25h25.013c-1.028-1.013-1.714-2.025-2.399-3.375z"/><path d="M47.97 40.5H37.69V30.375h3.427v6.75h6.853V40.5z"/><path d="M39.403 27c6.51 0 11.992 5.4 11.992 11.813 0 6.412-5.482 11.812-11.992 11.812-6.51 0-11.992-5.4-11.992-11.813C27.41 32.4 32.893 27 39.403 27zm0-3.375c-8.566 0-15.419 6.75-15.419 15.188C23.984 47.25 30.837 54 39.404 54c8.565 0 15.418-6.75 15.418-15.188 0-8.437-6.853-15.187-15.419-15.187z"/></g><defs><clipPath id="la"><path d="M0 0h54.822v54H0z"/></clipPath></defs></svg><svg viewBox="0 0 28 28" id="youtube" xmlns="http://www.w3.org/2000/svg"><g clip-path="url(#ma)"><path d="M12.256 16.623L16.81 14l-4.554-2.623v5.246z"/><path d="M14 0C6.27 0 0 6.27 0 14s6.27 14 14 14 14-6.27 14-14S21.73 0 14 0zm8.748 14.014s0 2.84-.36 4.209a2.192 2.192 0 01-1.542 1.542c-1.37.36-6.846.36-6.846.36s-5.462 0-6.846-.375a2.192 2.192 0 01-1.542-1.542c-.36-1.354-.36-4.208-.36-4.208s0-2.84.36-4.208a2.237 2.237 0 011.542-1.557c1.37-.36 6.846-.36 6.846-.36s5.476 0 6.846.375a2.19 2.19 0 011.542 1.542c.374 1.369.36 4.222.36 4.222z"/></g><defs><clipPath id="ma"><path d="M0 0h28v28H0z"/></clipPath></defs></svg></svg>