<svg width="181" height="57" viewBox="0 0 181 57" fill="none" xmlns="http://www.w3.org/2000/svg">
<path d="M41.8847 17.9476L29.9052 29.9055L17.9473 17.9476V0H41.8847V17.9476Z" fill="#0CA750"/>
<path d="M17.9473 25.7104L29.9052 37.6683L41.8847 25.7104V56.9999H17.9473V25.7104Z" fill="#0CA750"/>
<path d="M59.8329 17.9478H46.6641V41.8852H59.8329V17.9478Z" fill="#0CA750"/>
<path d="M13.1688 17.9478H0V41.8852H13.1688V17.9478Z" fill="#0CA750"/>
<path d="M75.6185 19.6558H76.678V31.3974C75.6617 31.3974 74.6454 31.3974 73.6075 31.3974V26.1861L71.1424 28.7809H70.818L68.3313 26.1861V31.3974C67.315 31.3974 66.2987 31.3974 65.2607 31.3974V19.6558H66.3636L70.9478 24.7373L75.6185 19.6558Z" fill="white"/>
<path d="M86.9924 22.3589C85.2625 22.3589 84.3759 22.3589 82.6677 22.3589V24.024H86.6464C86.6464 24.9105 86.6464 25.7971 86.6464 26.6837H82.6677C82.6677 27.3756 82.6677 28.046 82.6677 28.7379C84.3976 28.7379 85.3922 28.7379 87.1438 28.7379C87.1438 29.6029 87.1438 30.5111 87.1438 31.3976C84.3976 31.3976 82.3866 31.3976 79.6836 31.3976C79.6836 27.4837 79.6836 23.5699 79.6836 19.6992C82.3866 19.6992 84.2462 19.6992 86.9924 19.6992C86.9924 20.5642 86.9924 21.4724 86.9924 22.3589Z" fill="white"/>
<path d="M90.7336 32.7167H88.2686V28.8028H89.4579L93.4799 19.5479H94.7773L98.929 28.8028H100.14V32.7167H97.6748V31.4192H90.7553V32.7167H90.7336ZM92.4635 28.7812H95.772L94.0853 24.5429L92.4635 28.7812Z" fill="white"/>
<path d="M99.9453 22.3591C99.9453 21.4509 99.9453 20.5643 99.9453 19.6777H108.638C108.638 20.5643 108.638 21.4509 108.638 22.3591H105.784V31.3978C104.789 31.3978 103.816 31.3978 102.821 31.3978V22.3591H99.9453Z" fill="white"/>
<path d="M117.806 22.3589C116.076 22.3589 115.189 22.3589 113.481 22.3589V24.024H117.46C117.46 24.9105 117.46 25.7971 117.46 26.6837H113.481C113.481 27.3756 113.481 28.046 113.481 28.7379C115.211 28.7379 116.206 28.7379 117.957 28.7379C117.957 29.6029 117.957 30.5111 117.957 31.3976C115.211 31.3976 113.2 31.3976 110.497 31.3976C110.497 27.4837 110.497 23.5699 110.497 19.6992C113.2 19.6992 115.06 19.6992 117.806 19.6992C117.806 20.5642 117.806 21.4724 117.806 22.3589Z" fill="white"/>
<path d="M124.618 27.7217L122.477 31.3978H119.255V30.9437L123.039 25.1918L119.666 20.1318V19.6777H122.78L124.639 22.7267H124.726L126.607 19.6777H129.699V20.1318L126.326 25.1918L130.132 30.9437V31.3978H126.91L124.769 27.7217H124.618Z" fill="white"/>
<path d="M141.549 31.3976C140.533 31.3976 139.517 31.3976 138.479 31.3976V26.7053H134.867V31.3976C133.851 31.3976 132.813 31.3976 131.797 31.3976V19.6992C132.792 19.6992 133.829 19.6992 134.867 19.6992V23.9375H138.479V19.6992C139.495 19.6992 140.511 19.6992 141.549 19.6992V31.3976Z" fill="white"/>
<path d="M145.614 31.4192H144.555V19.6991C145.571 19.6991 146.587 19.6991 147.625 19.6991V25.4294L153.529 19.6343H154.61V31.3976C153.593 31.3976 152.555 31.3976 151.518 31.3976V25.6457L145.614 31.4192Z" fill="white"/>
<path d="M176.731 29.9272H172.125L171.433 31.3976H168.514V30.9651L173.79 19.5479H175.087L180.363 30.9651V31.3976H177.444L176.731 29.9272ZM174.395 24.2834L173.076 27.354H175.758L174.395 24.2834Z" fill="white"/>
<path d="M167.735 20.1535V19.6777H166.805C165.983 19.6777 165.205 19.6777 164.405 19.6777L163.735 20.867L161.961 23.9808L161.875 24.1538C161.421 24.1538 161.075 24.1538 160.686 24.1538V24.1106V19.6777C159.648 19.6777 158.653 19.6777 157.637 19.6777V31.3761C158.631 31.3761 159.648 31.3761 160.686 31.3761V26.9433V26.9C161.075 26.9 161.421 26.9 161.853 26.8784L161.961 27.0514L163.735 30.1652L164.405 31.3545H166.805H167.735V30.8788L166.762 29.3219L164.556 25.7324L164.427 25.4945L164.556 25.2566L166.762 21.6671L167.735 20.1535Z" fill="white"/>
<path d="M68.6764 38.5766L69.3035 38.728C69.1738 39.247 68.9359 39.6362 68.59 39.8957C68.244 40.1768 67.8331 40.3065 67.3358 40.3065C66.8168 40.3065 66.406 40.1984 66.0816 40.0038C65.7572 39.8092 65.5194 39.4848 65.3464 39.0956C65.1734 38.7064 65.0869 38.2739 65.0869 37.8198C65.0869 37.3224 65.1734 36.89 65.368 36.5224C65.5626 36.1548 65.8221 35.8737 66.1681 35.6791C66.5141 35.4844 66.9033 35.3979 67.3142 35.3979C67.7899 35.3979 68.1791 35.5277 68.5035 35.7655C68.8278 36.0034 69.0441 36.3494 69.1738 36.7819L68.5467 36.9332C68.4386 36.5872 68.2872 36.3278 68.071 36.1764C67.8547 36.025 67.5953 35.9385 67.2925 35.9385C66.9249 35.9385 66.6222 36.025 66.3843 36.198C66.1465 36.371 65.9735 36.6089 65.8654 36.9116C65.7572 37.2143 65.714 37.5171 65.714 37.8198C65.714 38.2306 65.7789 38.5766 65.887 38.8794C65.9951 39.1821 66.1897 39.3983 66.4276 39.5497C66.6654 39.701 66.9466 39.7659 67.2277 39.7659C67.5736 39.7659 67.8764 39.6578 68.1142 39.4632C68.417 39.2902 68.5899 38.9875 68.6764 38.5766Z" fill="white"/>
<path d="M70.3633 35.5059H74.0825V40.2414H73.4555V36.0681H70.9904V40.2414H70.3633V35.5059Z" fill="white"/>
<path d="M75.4014 40.2414V35.5059H78.8179V36.0681H76.0284V37.5169H78.6449V38.0791H76.0284V39.7008H78.926V40.2631H75.4014V40.2414Z" fill="white"/>
<path d="M80.0938 35.5059H80.7208V39.6792H82.2994V35.5059H82.9264V39.6792H84.505V35.5059H85.1321V40.2414H80.0938V35.5059Z" fill="white"/>
<path d="M86.4297 35.5059H86.9919V39.2684L89.5219 35.5059H90.149V40.2414H89.5867V36.5005L87.0568 40.2414H86.4297V35.5059Z" fill="white"/>
<path d="M91.4463 40.2416V35.506H92.3977L93.5222 38.8577C93.6303 39.1604 93.6951 39.3983 93.7384 39.5496C93.7816 39.3766 93.8681 39.1171 93.9979 38.7928L95.1223 35.4844H95.9656V40.22H95.3602V36.2845L93.9762 40.2416H93.414L92.0517 36.198V40.2416H91.4463Z" fill="white"/>
<path d="M99.4033 40.2414V35.5059H100.03V37.452H102.496V35.5059H103.123V40.2414H102.496V38.0142H100.03V40.2414H99.4033Z" fill="white"/>
<path d="M103.923 40.2414L105.739 35.5059H106.41L108.356 40.2414H107.642L107.08 38.8143H105.091L104.572 40.2414H103.923ZM105.285 38.2953H106.885L106.388 36.9763C106.237 36.587 106.128 36.2411 106.042 36.0032C105.977 36.3059 105.891 36.6087 105.782 36.9114L105.285 38.2953Z" fill="white"/>
<path d="M111.254 35.5059H114.973V40.2414H114.346V36.0681H111.881V40.2414H111.254V35.5059Z" fill="white"/>
<path d="M116.097 37.9278C116.097 37.1493 116.313 36.5222 116.724 36.0898C117.156 35.6357 117.697 35.4194 118.367 35.4194C118.8 35.4194 119.189 35.5276 119.556 35.7438C119.902 35.96 120.184 36.2411 120.357 36.6087C120.551 36.9763 120.638 37.4088 120.638 37.8845C120.638 38.3603 120.551 38.7927 120.357 39.182C120.162 39.5712 119.881 39.8523 119.535 40.0469C119.189 40.2415 118.8 40.3496 118.389 40.3496C117.935 40.3496 117.545 40.2415 117.199 40.0253C116.854 39.809 116.572 39.5063 116.399 39.1387C116.183 38.7495 116.097 38.3602 116.097 37.9278ZM116.745 37.9494C116.745 38.5116 116.897 38.9657 117.199 39.2901C117.502 39.6144 117.891 39.7874 118.346 39.7874C118.821 39.7874 119.21 39.6144 119.513 39.2901C119.816 38.9657 119.967 38.49 119.967 37.8845C119.967 37.4953 119.902 37.171 119.773 36.8682C119.643 36.5871 119.448 36.3492 119.21 36.1979C118.951 36.0465 118.67 35.96 118.367 35.96C117.913 35.96 117.545 36.1114 117.221 36.4141C116.897 36.7168 116.745 37.2358 116.745 37.9494Z" fill="white"/>
<path d="M121.697 40.2416V35.506H122.649L123.773 38.8577C123.881 39.1604 123.946 39.3983 123.989 39.5496C124.054 39.3766 124.119 39.1171 124.249 38.7928L125.373 35.4844H126.217V40.22H125.611V36.2845L124.227 40.2416H123.665L122.303 36.198V40.2416H121.697Z" fill="white"/>
<path d="M127.32 37.9278C127.32 37.1493 127.537 36.5222 127.947 36.0898C128.38 35.6357 128.92 35.4194 129.591 35.4194C130.023 35.4194 130.412 35.5276 130.78 35.7438C131.126 35.96 131.407 36.2411 131.58 36.6087C131.775 36.9763 131.861 37.4088 131.861 37.8845C131.861 38.3603 131.775 38.7927 131.58 39.182C131.386 39.5712 131.104 39.8523 130.758 40.0469C130.412 40.2415 130.023 40.3496 129.612 40.3496C129.158 40.3496 128.769 40.2415 128.423 40.0253C128.077 39.809 127.796 39.5063 127.623 39.1387C127.45 38.7711 127.32 38.3602 127.32 37.9278ZM127.969 37.9494C127.969 38.5116 128.12 38.9657 128.423 39.2901C128.726 39.6144 129.115 39.7874 129.569 39.7874C130.045 39.7874 130.434 39.6144 130.737 39.2901C131.04 38.9657 131.191 38.49 131.191 37.8845C131.191 37.4953 131.126 37.171 130.996 36.8682C130.867 36.5871 130.672 36.3492 130.434 36.1979C130.175 36.0465 129.894 35.96 129.591 35.96C129.137 35.96 128.769 36.1114 128.445 36.4141C128.12 36.7168 127.969 37.2358 127.969 37.9494Z" fill="white"/>
<path d="M132.942 35.5059H133.569V39.6792H135.148V35.5059H135.775V39.6792H137.354V35.5059H137.981V39.6792H138.413V41.5605H137.851V40.2414H132.942V35.5059Z" fill="white"/>
<path d="M139.451 35.5059H140.078V37.5385H141.203C141.722 37.5385 142.111 37.6034 142.349 37.7331C142.587 37.8628 142.76 38.0142 142.868 38.2304C142.976 38.4467 143.019 38.6629 143.019 38.8791C143.019 39.2467 142.889 39.5711 142.651 39.8522C142.392 40.1333 141.938 40.2631 141.246 40.2631H139.451V35.5059ZM140.078 39.7008H141.224C141.7 39.7008 142.003 39.6144 142.133 39.463C142.284 39.29 142.349 39.0954 142.349 38.8575C142.349 38.6629 142.305 38.5115 142.197 38.3818C142.089 38.2521 141.96 38.1656 141.787 38.1223C141.614 38.0791 141.332 38.0575 140.922 38.0575H140.078V39.7008Z" fill="white"/>
<path d="M144.143 40.2416V39.5713H144.813V40.2416H144.143Z" fill="white"/>
<path d="M147.041 40.2414V35.5059H148.814C149.182 35.5059 149.463 35.5491 149.679 35.6572C149.895 35.7437 150.068 35.8951 150.198 36.0897C150.328 36.2843 150.393 36.5005 150.393 36.7168C150.393 36.9114 150.328 37.106 150.22 37.279C150.112 37.452 149.939 37.6033 149.722 37.7115C150.003 37.798 150.22 37.9493 150.393 38.1439C150.544 38.3386 150.631 38.5764 150.631 38.8575C150.631 39.0738 150.587 39.29 150.479 39.4846C150.393 39.6792 150.263 39.8306 150.133 39.9171C150.003 40.0252 149.83 40.0901 149.614 40.1549C149.398 40.1982 149.16 40.2414 148.857 40.2414H147.041ZM147.668 37.4952H148.684C148.966 37.4952 149.16 37.4736 149.29 37.4304C149.441 37.3871 149.571 37.3006 149.657 37.1925C149.744 37.0844 149.787 36.9546 149.787 36.7816C149.787 36.6303 149.744 36.4789 149.679 36.3708C149.614 36.2411 149.506 36.1762 149.355 36.1329C149.203 36.0897 148.966 36.0681 148.641 36.0681H147.69V37.4952H147.668ZM147.668 39.6792H148.857C149.052 39.6792 149.203 39.6792 149.29 39.6576C149.441 39.636 149.549 39.5927 149.657 39.5279C149.744 39.463 149.83 39.3765 149.895 39.2684C149.96 39.1603 149.982 39.0305 149.982 38.8791C149.982 38.7062 149.939 38.5548 149.852 38.4251C149.766 38.2953 149.636 38.2088 149.485 38.1439C149.333 38.1007 149.095 38.0575 148.793 38.0575H147.69V39.6792H147.668Z" fill="white"/>
<path d="M154.912 38.5766L155.539 38.728C155.409 39.247 155.171 39.6362 154.825 39.8957C154.479 40.1768 154.068 40.3065 153.571 40.3065C153.052 40.3065 152.641 40.1984 152.317 40.0038C151.993 39.7876 151.755 39.4848 151.582 39.0956C151.409 38.7064 151.322 38.2739 151.322 37.8198C151.322 37.3224 151.409 36.89 151.603 36.5224C151.798 36.1548 152.057 35.8737 152.403 35.6791C152.749 35.4844 153.139 35.3979 153.549 35.3979C154.025 35.3979 154.414 35.5277 154.739 35.7655C155.063 36.0034 155.279 36.3494 155.409 36.7819L154.782 36.9332C154.674 36.5872 154.523 36.3278 154.306 36.1764C154.09 36.025 153.831 35.9385 153.528 35.9385C153.16 35.9385 152.858 36.025 152.62 36.198C152.382 36.371 152.209 36.6089 152.101 36.9116C151.993 37.2143 151.949 37.5171 151.949 37.8198C151.949 38.2306 152.014 38.5766 152.122 38.8794C152.23 39.1821 152.425 39.3983 152.663 39.5497C152.901 39.701 153.182 39.7659 153.463 39.7659C153.809 39.7659 154.112 39.6578 154.35 39.4632C154.674 39.2902 154.825 38.9875 154.912 38.5766Z" fill="white"/>
<path d="M156.599 40.2414V35.5059H160.015V36.0681H157.226V37.5169H159.842V38.0791H157.226V39.7008H160.145V40.2631H156.599V40.2414Z" fill="white"/>
<path d="M161.291 35.5059H164.362V36.0681H161.918V40.2414H161.291V35.5059Z" fill="white"/>
<path d="M165.14 35.5059H168.016V39.6792H168.448V41.3443H167.886V40.2414H164.751V41.3443H164.188V39.6792H164.556C164.945 39.0954 165.118 37.9493 165.118 36.1978V35.5059H165.14ZM167.389 36.0681H165.745V36.3059C165.745 36.7168 165.702 37.2574 165.637 37.9493C165.572 38.6413 165.421 39.2251 165.205 39.6792H167.389V36.0681Z" fill="white"/>
<path d="M168.945 40.2414L170.762 35.5059H171.432L173.378 40.2414H172.665L172.102 38.8143H170.113L169.594 40.2414H168.945ZM170.329 38.2953H171.929L171.432 36.9763C171.281 36.587 171.173 36.2411 171.086 36.0032C171.021 36.3059 170.935 36.6087 170.827 36.9114L170.329 38.2953Z" fill="white"/>
</svg>
