<svg width="54" height="54" viewBox="0 0 54 54" fill="none" xmlns="http://www.w3.org/2000/svg">
<path d="M51.3458 0H33.5977C32.1347 0 30.9443 1.30994 30.9443 2.92017V21.6402C30.9443 23.2504 32.1347 24.5604 33.5977 24.5604H51.3458C52.8088 24.5604 53.9991 23.2504 53.9991 21.6402V2.92017C53.9991 1.30994 52.8088 0 51.3458 0ZM45.1603 2.32156V6.25741L44.8242 6.04615C44.4873 5.83442 44.0721 5.84301 43.743 6.06913L42.5639 6.87831L41.4713 6.08515C41.143 5.84685 40.7096 5.83129 40.3681 6.0458L40.0282 6.25915V2.32156H45.1603ZM51.8898 21.6402C51.8898 21.9703 51.6457 22.2388 51.3458 22.2388H33.5977C33.2978 22.2388 33.0537 21.9703 33.0537 21.6402V2.92017C33.0537 2.59005 33.2978 2.32156 33.5977 2.32156H37.9189V8.25732C37.9189 9.13023 38.8049 9.69959 39.4961 9.26569L40.8505 8.41565L41.9671 9.22634C42.3077 9.47359 42.7598 9.47985 43.1059 9.24236L44.3248 8.4059L45.6919 9.26534C46.3831 9.69982 47.2697 9.13069 47.2697 8.25732V2.32156H51.3458C51.6457 2.32156 51.8898 2.59005 51.8898 2.92017V21.6402Z" fill="white"/>
<path d="M40.9607 16.9238H36.9893C36.4068 16.9238 35.9346 17.4436 35.9346 18.0846C35.9346 18.7256 36.4068 19.2454 36.9893 19.2454H40.9607C41.5432 19.2454 42.0154 18.7256 42.0154 18.0846C42.0154 17.4436 41.5432 16.9238 40.9607 16.9238Z" fill="white"/>
<path d="M38.5648 28.2593H8.84158C5.12949 28.2593 2.10938 24.9355 2.10938 20.8501C2.10938 16.7646 5.12938 13.4407 8.84158 13.4407H22.3962C22.9787 13.4407 23.4508 12.9209 23.4508 12.2799C23.4508 11.6389 22.9787 11.1191 22.3962 11.1191H8.84158C3.96627 11.1191 0 15.4845 0 20.8501C0 26.2157 3.96627 30.5809 8.84158 30.5809H38.5648C40.8354 30.5809 42.6827 32.6141 42.6827 35.1131C42.6827 37.6122 40.8354 39.6453 38.5648 39.6453H30.3185L31.4126 38.4411C31.8245 37.9878 31.8245 37.2528 31.4126 36.7994C31.0007 36.3462 30.3329 36.3462 29.921 36.7994L27.0264 39.9852C26.6204 40.4328 26.6204 41.1791 27.0264 41.6269L29.921 44.8126C30.3273 45.2598 31.0062 45.2598 31.4126 44.8126C31.8245 44.3593 31.8245 43.6243 31.4126 43.1709L30.3185 41.9667H38.5648C41.9985 41.9667 44.7921 38.8922 44.7921 35.113C44.7921 31.334 41.9985 28.2593 38.5648 28.2593Z" fill="white"/>
<path d="M16.9398 33.4121C12.9398 33.4121 9.68555 36.9937 9.68555 41.3961C9.68555 43.0397 10.1501 44.7244 11.0453 46.0501L16.0928 53.538C16.5076 54.1535 17.372 54.1534 17.7868 53.538L22.8344 46.0501C23.73 44.7255 24.1941 43.0389 24.1941 41.3961C24.1941 36.9937 20.9398 33.4121 16.9398 33.4121ZM21.1279 44.6827C21.1201 44.6948 21.1125 44.7071 21.105 44.7194L16.9398 50.8982L12.7747 44.7194C12.169 43.7102 11.7949 42.6196 11.7949 41.3961C11.7949 38.2738 14.1029 35.7337 16.9398 35.7337C19.7767 35.7337 22.0847 38.2738 22.0847 41.3961C22.0847 42.5819 21.7539 43.7184 21.1279 44.6827Z" fill="white"/>
<path d="M16.9407 37.7617C15.12 37.7617 13.6387 39.392 13.6387 41.3959C13.6387 43.3997 15.1199 45.0301 16.9407 45.0301C18.7615 45.0301 20.2427 43.3997 20.2427 41.3959C20.2427 39.392 18.7614 37.7617 16.9407 37.7617ZM16.9407 42.7085C16.2831 42.7085 15.7481 42.1197 15.7481 41.3959C15.7481 40.672 16.2831 40.0833 16.9407 40.0833C17.5983 40.0833 18.1333 40.672 18.1333 41.3959C18.1333 42.1197 17.5983 42.7085 16.9407 42.7085Z" fill="white"/>
<path d="M26.2174 12.724C26.4353 13.3096 27.0649 13.5936 27.5948 13.352C28.1254 13.1101 28.3855 12.4201 28.1654 11.836C27.9452 11.2516 27.3188 10.9667 26.788 11.208C26.2578 11.4491 25.9964 12.1408 26.2174 12.724Z" fill="white"/>
</svg>
