<svg width="27" height="28" viewBox="0 0 27 28" fill="none" xmlns="http://www.w3.org/2000/svg">
<g clip-path="url(#clip0_1645_1340)">
<path d="M27 14C27 6.26719 20.9566 0 13.5 0C6.04336 0 0 6.26719 0 14C0 21.7328 6.04336 28 13.5 28C13.5791 28 13.6582 28 13.7373 27.9945V17.1008H10.8369V13.5953H13.7373V11.0141C13.7373 8.02266 15.4986 6.39297 18.0721 6.39297C19.3061 6.39297 20.366 6.48594 20.6719 6.52969V9.65781H18.9C17.5025 9.65781 17.2283 10.3469 17.2283 11.3586V13.5898H20.577L20.1393 17.0953H17.2283V27.4586C22.8709 25.7797 27 20.393 27 14Z" fill="#A1A1A1"/>
</g>
<defs>
<clipPath id="clip0_1645_1340">
<rect width="27" height="28" fill="white"/>
</clipPath>
</defs>
</svg>
