<svg width="54" height="54" viewBox="0 0 54 54" fill="none" xmlns="http://www.w3.org/2000/svg">
<path d="M53.129 22.6452H48.3365C47.7777 19.9154 46.7016 17.3178 45.1662 14.9926L48.5554 11.6035C48.7185 11.4399 48.8101 11.2183 48.8101 10.9873C48.8101 10.7562 48.7185 10.5346 48.5554 10.371L43.629 5.44464C43.4654 5.28149 43.2438 5.18987 43.0127 5.18987C42.7817 5.18987 42.5601 5.28149 42.3965 5.44464L39.0074 8.83379C36.6822 7.29845 34.0846 6.22231 31.3548 5.66347V0.870968C31.3548 0.639973 31.2631 0.418439 31.0997 0.255101C30.9364 0.0917624 30.7149 0 30.4839 0H23.5161C23.2851 0 23.0636 0.0917624 22.9003 0.255101C22.7369 0.418439 22.6452 0.639973 22.6452 0.870968V5.66347C19.9154 6.22231 17.3178 7.29845 14.9926 8.83379L11.6035 5.44464C11.4399 5.28149 11.2183 5.18987 10.9873 5.18987C10.7562 5.18987 10.5346 5.28149 10.371 5.44464L5.44464 10.371C5.28149 10.5346 5.18987 10.7562 5.18987 10.9873C5.18987 11.2183 5.28149 11.4399 5.44464 11.6035L8.83379 14.9926C7.29845 17.3178 6.22231 19.9154 5.66347 22.6452H0.870968C0.639973 22.6452 0.418439 22.7369 0.255101 22.9003C0.0917624 23.0636 0 23.2851 0 23.5161V30.4839C0 30.7149 0.0917624 30.9364 0.255101 31.0997C0.418439 31.2631 0.639973 31.3548 0.870968 31.3548H5.66347C6.22231 34.0846 7.29845 36.6822 8.83379 39.0074L5.44464 42.3965C5.28149 42.5601 5.18987 42.7817 5.18987 43.0127C5.18987 43.2438 5.28149 43.4654 5.44464 43.629L10.371 48.5554C10.5346 48.7185 10.7562 48.8101 10.9873 48.8101C11.2183 48.8101 11.4399 48.7185 11.6035 48.5554L14.9926 45.1662C17.3178 46.7016 19.9154 47.7777 22.6452 48.3365V53.129C22.6452 53.36 22.7369 53.5816 22.9003 53.7449C23.0636 53.9082 23.2851 54 23.5161 54H30.4839C30.7149 54 30.9364 53.9082 31.0997 53.7449C31.2631 53.5816 31.3548 53.36 31.3548 53.129V48.3365C34.0846 47.7777 36.6822 46.7016 39.0074 45.1662L42.3965 48.5554C42.5601 48.7185 42.7817 48.8101 43.0127 48.8101C43.2438 48.8101 43.4654 48.7185 43.629 48.5554L48.5554 43.629C48.7185 43.4654 48.8101 43.2438 48.8101 43.0127C48.8101 42.7817 48.7185 42.5601 48.5554 42.3965L45.1662 39.0074C46.7016 36.6822 47.7777 34.0846 48.3365 31.3548H53.129C53.36 31.3548 53.5816 31.2631 53.7449 31.0997C53.9082 30.9364 54 30.7149 54 30.4839V23.5161C54 23.2851 53.9082 23.0636 53.7449 22.9003C53.5816 22.7369 53.36 22.6452 53.129 22.6452ZM52.2581 29.6129H47.6125C47.4065 29.6129 47.2071 29.686 47.0498 29.8191C46.8925 29.9523 46.7876 30.1369 46.7535 30.3402C46.249 33.3183 45.0786 36.1441 43.3296 38.6067C43.2098 38.7744 43.1535 38.9792 43.1706 39.1846C43.1878 39.39 43.2773 39.5826 43.4232 39.7281L46.7078 43.0127L43.0127 46.7078L39.7281 43.4232C39.5825 43.2775 39.3899 43.1881 39.1846 43.171C38.9793 43.1538 38.7745 43.21 38.6067 43.3296C36.1441 45.0786 33.3183 46.249 30.3402 46.7535C30.1369 46.7876 29.9523 46.8925 29.8191 47.0498C29.686 47.2071 29.6129 47.4065 29.6129 47.6125V52.2581H24.3871V47.6125C24.3871 47.4065 24.314 47.2071 24.1809 47.0498C24.0477 46.8925 23.8631 46.7876 23.6598 46.7535C20.6817 46.249 17.8559 45.0786 15.3933 43.3296C15.2255 43.21 15.0207 43.1538 14.8154 43.171C14.6101 43.1881 14.4175 43.2775 14.2719 43.4232L10.9873 46.7078L7.29218 43.0127L10.5768 39.7281C10.7227 39.5826 10.8122 39.39 10.8294 39.1846C10.8465 38.9792 10.7902 38.7744 10.6704 38.6067C8.92139 36.1441 7.75096 33.3183 7.24645 30.3402C7.21245 30.1369 7.10748 29.9523 6.95021 29.8191C6.79293 29.686 6.59353 29.6129 6.38746 29.6129H1.74194V24.3871H6.38746C6.59353 24.3871 6.79293 24.314 6.95021 24.1809C7.10748 24.0477 7.21245 23.8631 7.24645 23.6598C7.75096 20.6817 8.92139 17.8559 10.6704 15.3933C10.7902 15.2256 10.8465 15.0208 10.8294 14.8154C10.8122 14.61 10.7227 14.4174 10.5768 14.2719L7.29218 10.9873L10.9873 7.29218L14.2719 10.5768C14.4175 10.7225 14.6101 10.8119 14.8154 10.829C15.0207 10.8462 15.2255 10.79 15.3933 10.6704C17.8559 8.92139 20.6817 7.75096 23.6598 7.24645C23.8631 7.21245 24.0477 7.10748 24.1809 6.95021C24.314 6.79293 24.3871 6.59353 24.3871 6.38746V1.74194H29.6129V6.38746C29.6129 6.59353 29.686 6.79293 29.8191 6.95021C29.9523 7.10748 30.1369 7.21245 30.3402 7.24645C33.3183 7.75096 36.1441 8.92139 38.6067 10.6704C38.7745 10.79 38.9793 10.8462 39.1846 10.829C39.3899 10.8119 39.5825 10.7225 39.7281 10.5768L43.0127 7.29218L46.7078 10.9873L43.4232 14.2719C43.2773 14.4174 43.1878 14.61 43.1706 14.8154C43.1535 15.0208 43.2098 15.2256 43.3296 15.3933C45.0786 17.8559 46.249 20.6817 46.7535 23.6598C46.7876 23.8631 46.8925 24.0477 47.0498 24.1809C47.2071 24.314 47.4065 24.3871 47.6125 24.3871H52.2581V29.6129Z" fill="white"/>
<path d="M27.0004 9.58105C17.3958 9.58105 9.58105 17.3958 9.58105 27.0004C9.58305 29.5976 10.1653 32.1615 11.2853 34.5047C12.4053 36.848 14.0348 38.9114 16.0545 40.5441C18.0743 42.1769 20.4333 43.3377 22.9593 43.9417C25.4852 44.5458 28.1142 44.5778 30.6541 44.0355C30.6576 44.0341 30.6613 44.0334 30.665 44.0333C30.6656 44.0327 30.6664 44.0323 30.6672 44.0322C34.561 43.1929 38.0497 41.0448 40.5521 37.9457C43.0545 34.8466 44.4195 30.9837 44.4198 27.0004C44.4198 17.3958 36.605 9.58105 27.0004 9.58105ZM30.0967 29.7592C29.9515 29.8315 29.8294 29.9429 29.744 30.0808C29.6587 30.2187 29.6134 30.3776 29.6133 30.5398V42.459C28.0654 42.7173 26.4879 42.7452 24.9319 42.5417L24.9057 42.5385C24.7882 42.5221 24.6706 42.5058 24.553 42.4873C24.529 42.483 24.5051 42.4797 24.4811 42.4753C24.4496 42.471 24.4191 42.4644 24.3875 42.459V30.5398C24.3874 30.3776 24.3422 30.2187 24.2568 30.0808C24.1714 29.9429 24.0493 29.8315 23.9041 29.7592C22.775 29.1989 21.8189 28.3428 21.1378 27.2821C20.4566 26.2214 20.0759 24.9959 20.0361 23.7359C19.9963 22.476 20.299 21.2289 20.9119 20.1274C21.5248 19.0259 22.425 18.1112 23.5165 17.4807V23.5165C23.5168 23.6599 23.5522 23.801 23.6198 23.9275C23.6874 24.0539 23.785 24.1618 23.9041 24.2416L26.517 25.9836C26.6602 26.0789 26.8284 26.1297 27.0004 26.1297C27.1724 26.1297 27.3406 26.0789 27.4838 25.9836L30.0967 24.2416C30.2158 24.1618 30.3134 24.0539 30.381 23.9275C30.4486 23.801 30.4841 23.6599 30.4843 23.5165V17.4807C31.5759 18.1112 32.476 19.0259 33.0889 20.1274C33.7018 21.2289 34.0045 22.476 33.9647 23.7359C33.9249 24.9959 33.5442 26.2214 32.8631 27.2821C32.1819 28.3428 31.2259 29.1989 30.0967 29.7592ZM39.1428 36.9186C37.1261 39.3807 34.4111 41.1745 31.3552 42.0638V31.0613C32.797 30.2285 33.9699 29.0001 34.7352 27.5214C35.5005 26.0427 35.826 24.3758 35.6733 22.7178C35.5206 21.0598 34.8961 19.4804 33.8736 18.1663C32.8512 16.8523 31.4736 15.8588 29.904 15.3033C29.7726 15.2568 29.632 15.2425 29.494 15.2616C29.3559 15.2807 29.2245 15.3326 29.1107 15.413C28.9969 15.4935 28.904 15.6 28.8399 15.7238C28.7758 15.8475 28.7424 15.9848 28.7423 16.1242V23.0506L27.0004 24.2111L25.2585 23.0506V16.1242C25.2585 15.9848 25.225 15.8475 25.1609 15.7238C25.0968 15.6 25.004 15.4935 24.8901 15.413C24.7763 15.3326 24.6449 15.2807 24.5068 15.2616C24.3688 15.2425 24.2282 15.2568 24.0968 15.3033C22.5272 15.8588 21.1497 16.8523 20.1272 18.1663C19.1047 19.4804 18.4802 21.0598 18.3275 22.7178C18.1748 24.3758 18.5003 26.0427 19.2656 27.5214C20.0309 29.0001 21.2038 30.2285 22.6456 31.0613V42.0638C19.3809 41.1191 16.5114 39.1393 14.4693 36.4225C12.4272 33.7057 11.323 30.3991 11.323 27.0004C11.323 18.3561 18.3561 11.323 27.0004 11.323C35.6448 11.323 42.6778 18.3561 42.6778 27.0004C42.6758 30.6147 41.4272 34.1177 39.1428 36.9186Z" fill="white"/>
<path d="M6.96812 26.1289H3.48425C3.25325 26.1289 3.03172 26.2207 2.86838 26.384C2.70504 26.5473 2.61328 26.7689 2.61328 26.9999C2.61328 27.2309 2.70504 27.4524 2.86838 27.6157C3.03172 27.7791 3.25325 27.8708 3.48425 27.8708H6.96812C7.19912 27.8708 7.42065 27.7791 7.58399 27.6157C7.74733 27.4524 7.83909 27.2309 7.83909 26.9999C7.83909 26.7689 7.74733 26.5473 7.58399 26.384C7.42065 26.2207 7.19912 26.1289 6.96812 26.1289Z" fill="white"/>
<path d="M26.9999 36.5809C27.2309 36.5809 27.4524 36.4891 27.6157 36.3258C27.7791 36.1625 27.8708 35.9409 27.8708 35.7099V29.6132C27.8708 29.3822 27.7791 29.1606 27.6157 28.9973C27.4524 28.8339 27.2309 28.7422 26.9999 28.7422C26.7689 28.7422 26.5473 28.8339 26.384 28.9973C26.2207 29.1606 26.1289 29.3822 26.1289 29.6132V35.7099C26.1289 35.9409 26.2207 36.1625 26.384 36.3258C26.5473 36.4891 26.7689 36.5809 26.9999 36.5809Z" fill="white"/>
<path d="M26.9999 40.0641C27.2309 40.0641 27.4524 39.9723 27.6157 39.809C27.7791 39.6456 27.8708 39.4241 27.8708 39.1931V38.3221C27.8708 38.0911 27.7791 37.8696 27.6157 37.7063C27.4524 37.5429 27.2309 37.4512 26.9999 37.4512C26.7689 37.4512 26.5473 37.5429 26.384 37.7063C26.2207 37.8696 26.1289 38.0911 26.1289 38.3221V39.1931C26.1289 39.4241 26.2207 39.6456 26.384 39.809C26.5473 39.9723 26.7689 40.0641 26.9999 40.0641Z" fill="white"/>
</svg>
