<svg width="86" height="86" viewBox="0 0 86 86" fill="none" xmlns="http://www.w3.org/2000/svg">
<path d="M51.7004 58.9436C51.3895 58.9427 51.0796 58.9078 50.7759 58.8396C44.9946 57.6166 39.6685 54.749 35.4105 50.567C31.2435 46.3757 28.3534 41.0393 27.0899 35.2035C26.941 34.4762 26.9775 33.7219 27.1961 33.0132C27.4147 32.3045 27.808 31.6653 28.338 31.157L32.0361 27.517C32.225 27.3344 32.4494 27.1945 32.6947 27.1065C32.94 27.0185 33.2007 26.9845 33.4598 27.0065C33.7284 27.0352 33.9877 27.1237 34.2193 27.2658C34.4509 27.4079 34.6492 27.6001 34.8004 27.829L39.4229 34.8159C39.5963 35.087 39.6799 35.4078 39.6616 35.7312C39.6433 36.0546 39.524 36.3634 39.3212 36.6122L37.0007 39.4485C37.9249 41.5403 39.2337 43.4308 40.8559 45.0172C42.4676 46.6611 44.3726 47.9738 46.4677 48.8841L49.3429 46.5488C49.5844 46.3537 49.8782 46.2383 50.1854 46.218C50.4926 46.1977 50.7985 46.2736 51.0625 46.4354L58.0425 51.0491C58.2821 51.1954 58.4861 51.3952 58.6394 51.6336C58.7928 51.8719 58.8913 52.1427 58.9278 52.4255C58.9643 52.7084 58.9377 52.996 58.85 53.2668C58.7623 53.5377 58.6159 53.7847 58.4216 53.9895L54.816 57.6389C54.4064 58.0557 53.9203 58.3855 53.3856 58.6094C52.8509 58.8333 52.2782 58.9469 51.7004 58.9436ZM33.3119 28.8785L29.6139 32.5184C29.3157 32.8026 29.0949 33.1612 28.9733 33.5591C28.8518 33.9569 28.8335 34.3803 28.9205 34.7875C30.0953 40.2636 32.7958 45.2747 36.6956 49.215C40.7026 53.1495 45.7148 55.8467 51.1549 56.996C51.5667 57.084 51.9934 57.0662 52.3968 56.9441C52.8002 56.822 53.1676 56.5994 53.4662 56.2964L57.0718 52.6469L50.3321 48.1939L47.2443 50.7088C47.1261 50.8045 46.9868 50.8691 46.8385 50.8971C46.6903 50.9252 46.5376 50.9157 46.3937 50.8695C43.8298 49.9034 41.5062 48.3699 39.5893 46.3786C37.6066 44.4851 36.0675 42.1582 35.087 39.5715C35.0455 39.4149 35.0441 39.25 35.083 39.0927C35.1218 38.9354 35.1996 38.7909 35.3088 38.6733L37.805 35.6195L33.3119 28.8785Z" fill="white"/>
<circle cx="43" cy="43" r="42.5" stroke="white" stroke-opacity="0.5"/>
</svg>
