<svg width="55" height="54" viewBox="0 0 55 54" fill="none" xmlns="http://www.w3.org/2000/svg">
<g clip-path="url(#clip0_430_2188)">
<path d="M10.2793 0H13.7057V10.125H10.2793V0Z" fill="#333232"/>
<path d="M37.6904 0H41.1168V10.125H37.6904V0Z" fill="#333232"/>
<path d="M22.6142 47.25H3.4264V20.25H47.9695V22.275C49.3401 22.95 50.368 23.625 51.3959 24.6375V3.375H44.5431V13.5H34.264V3.375H17.132V13.5H6.85279V3.375H0V50.625H25.0127C23.9848 49.6125 23.2995 48.6 22.6142 47.25Z" fill="#333232"/>
<path d="M47.9696 40.5H37.6904V30.375H41.1168V37.125H47.9696V40.5Z" fill="#333232"/>
<path d="M39.4032 27C45.9133 27 51.3955 32.4 51.3955 38.8125C51.3955 45.225 45.9133 50.625 39.4032 50.625C32.893 50.625 27.4108 45.225 27.4108 38.8125C27.4108 32.4 32.893 27 39.4032 27ZM39.4032 23.625C30.8372 23.625 23.9844 30.375 23.9844 38.8125C23.9844 47.25 30.8372 54 39.4032 54C47.9691 54 54.8219 47.25 54.8219 38.8125C54.8219 30.375 47.9691 23.625 39.4032 23.625Z" fill="#333232"/>
</g>
<defs>
<clipPath id="clip0_430_2188">
<rect width="54.8223" height="54" fill="white"/>
</clipPath>
</defs>
</svg>
